<?xml version="1.0" standalone="no"?>
<!DOCTYPE svg PUBLIC "-//W3C//DTD SVG 20010904//EN"
 "http://www.w3.org/TR/2001/REC-SVG-20010904/DTD/svg10.dtd">
<svg version="1.0" xmlns="http://www.w3.org/2000/svg"
 width="433.000000pt" height="433.000000pt" viewBox="0 0 433.000000 433.000000"
 preserveAspectRatio="xMidYMid meet">
<metadata>
Created by potrace 1.11, written by Peter Selinger 2001-2013
</metadata>
<g transform="translate(0.000000,433.000000) scale(0.100000,-0.100000)"
fill="#000000" stroke="none">
<path d="M1426 4014 c-33 -11 -65 -32 -101 -68 -76 -75 -89 -122 -90 -314 l0
-152 815 -3 815 -2 5 -83 c4 -73 8 -86 29 -103 13 -10 31 -20 40 -21 9 -2
-436 -5 -989 -8 l-1005 -5 -47 -28 c-51 -30 -94 -91 -100 -142 l-3 -30 228 -3
227 -2 0 -770 0 -770 -22 -4 c-13 -3 -42 -7 -65 -10 -176 -24 -332 -193 -352
-380 -6 -55 -7 -58 -21 -41 -11 14 -11 17 -2 11 11 -7 12 -4 3 11 -6 11 -7 23
-4 27 3 3 4 6 1 6 -3 0 -12 -8 -19 -17 -12 -14 -12 -16 0 -8 10 5 12 4 7 -4
-10 -16 -29 -3 -22 16 4 8 1 11 -5 7 -6 -3 -8 -16 -5 -28 5 -20 4 -20 -9 -2
-8 10 -12 24 -8 30 3 6 -7 -2 -24 -17 -28 -26 -31 -27 -44 -10 -8 9 -9 14 -3
10 6 -3 11 0 11 8 0 11 -3 12 -14 3 -8 -6 -12 -17 -9 -25 4 -8 1 -11 -5 -7 -6
3 -9 15 -6 25 7 28 -2 23 -13 -7 -10 -24 -30 -25 -30 -1 0 7 4 6 10 -3 7 -11
9 -10 7 9 l-1 23 -23 -27 c-13 -14 -23 -21 -23 -15 0 6 -4 9 -9 5 -5 -3 -13 0
-17 6 -4 7 -3 9 3 6 5 -3 10 0 10 8 0 11 -3 12 -14 3 -8 -6 -12 -17 -9 -25 4
-8 1 -11 -5 -7 -6 3 -9 15 -6 25 3 11 1 17 -4 13 -5 -3 -9 -11 -9 -19 0 -8 -4
-16 -9 -19 -4 -3 -7 6 -5 19 1 14 -2 23 -7 19 -5 -3 -6 -11 -3 -17 4 -7 4 -9
-1 -5 -4 4 -14 3 -22 -3 -7 -6 -13 -8 -13 -4 0 4 -8 1 -17 -6 -10 -7 -15 -9
-11 -5 12 14 -11 34 -32 29 -11 -3 -17 -9 -14 -15 4 -5 11 -5 18 1 9 8 13 7
13 -3 0 -16 -13 -15 -42 2 -14 8 -16 12 -5 12 10 0 11 3 4 8 -7 4 -14 16 -17
27 -2 11 -5 -7 -6 -41 l-1 -61 53 -25 c77 -38 151 -58 254 -68 128 -12 251 1
453 50 258 61 319 71 495 77 123 4 179 2 244 -10 149 -29 270 -104 321 -201
l24 -44 28 48 c48 84 139 148 263 187 50 15 93 18 255 18 213 -1 272 -9 520
-70 77 -19 179 -41 226 -49 169 -27 371 -3 499 60 l55 27 0 60 c0 33 -3 58 -6
54 -3 -3 -6 -22 -6 -41 0 -20 -4 -33 -9 -30 -5 3 -7 10 -4 15 4 5 1 9 -5 9 -6
0 -8 5 -5 10 10 16 -1 11 -16 -7 -9 -11 -10 -14 -2 -9 9 5 11 2 6 -10 -5 -15
-7 -15 -15 0 -5 9 -6 21 -2 28 5 7 3 8 -5 3 -7 -4 -10 -17 -7 -29 5 -20 4 -20
-9 -2 -8 10 -12 23 -9 27 9 16 -3 10 -17 -8 -9 -11 -10 -14 -2 -9 9 5 11 2 6
-10 -5 -15 -7 -15 -15 0 -5 9 -6 21 -2 28 5 7 3 8 -5 3 -7 -4 -10 -17 -7 -29
5 -20 4 -20 -9 -2 -8 10 -12 23 -9 27 9 16 -3 10 -17 -8 -9 -11 -10 -14 -2 -9
9 5 11 2 6 -10 -5 -15 -7 -15 -15 0 -5 9 -6 21 -2 28 5 7 3 8 -5 3 -7 -4 -10
-17 -7 -29 5 -20 4 -20 -9 -2 -8 10 -12 23 -9 27 9 16 -3 10 -17 -8 -9 -11
-10 -14 -2 -9 9 5 11 2 6 -10 -5 -15 -7 -15 -15 0 -5 9 -6 21 -2 28 5 7 3 8
-5 3 -7 -4 -10 -17 -7 -29 5 -20 4 -20 -9 -2 -8 10 -12 23 -9 27 9 16 -3 10
-17 -8 -9 -11 -10 -14 -2 -9 9 5 11 2 6 -10 -5 -15 -7 -15 -15 0 -5 9 -6 21
-2 28 5 7 3 8 -5 3 -7 -4 -10 -17 -7 -29 5 -20 4 -20 -9 -2 -8 10 -11 24 -8
30 4 6 -4 2 -17 -9 -21 -18 -23 -18 -17 -2 4 12 3 16 -4 11 -6 -3 -8 -16 -5
-28 5 -20 5 -20 -9 -2 -8 11 -15 16 -15 10 0 -5 -5 -2 -11 6 -9 12 -10 10 -6
-8 3 -13 3 -21 0 -18 -3 3 -13 1 -23 -4 -15 -8 -18 -2 -23 46 -8 81 -63 188
-128 252 -60 59 -152 108 -220 117 -24 4 -54 8 -66 11 l-23 4 0 770 0 770 201
0 202 0 -6 41 c-8 58 -50 114 -108 141 l-48 23 -1 67 c0 37 -5 79 -12 93 -14
32 -56 55 -98 55 l-30 0 0 70 0 70 -48 0 -49 0 -6 93 c-9 126 -29 180 -92 244
-68 67 -130 87 -255 81 -123 -6 -174 -33 -315 -168 -135 -129 -182 -155 -280
-155 -98 0 -145 26 -280 155 -145 139 -193 163 -325 167 -65 2 -110 -2 -144
-13z m1744 -561 c64 -37 67 -126 6 -175 -13 -11 -39 -18 -68 -18 -40 0 -50 4
-72 31 -45 53 -30 146 28 169 34 14 76 11 106 -7z m-220 -1138 c0 -516 -3
-735 -11 -735 -6 0 -3 -7 5 -16 13 -12 14 -20 4 -37 -6 -12 -11 -23 -10 -24 7
-10 0 -23 -8 -18 -6 4 -17 2 -24 -4 -9 -8 -13 -7 -13 4 0 8 3 13 6 11 3 -2 15
0 26 5 17 7 15 8 -9 6 -27 -2 -31 -9 -67 -102 -22 -55 -48 -108 -60 -117 -18
-16 -44 -18 -189 -18 -204 0 -199 -3 -251 136 -35 94 -38 99 -68 102 -23 2
-31 8 -31 23 0 17 -7 19 -75 19 -68 0 -75 -2 -75 -19 0 -15 -8 -21 -32 -23
-31 -3 -34 -7 -71 -103 -21 -55 -47 -108 -58 -117 -18 -16 -44 -18 -190 -18
-202 0 -200 -1 -249 132 -18 48 -36 85 -41 82 -5 -3 -6 2 -3 10 5 12 -1 16
-21 16 -14 0 -24 -4 -20 -9 3 -5 1 -12 -4 -15 -5 -4 -8 2 -6 11 1 10 -2 26 -6
35 -6 11 -4 22 7 32 8 9 11 16 5 16 -8 0 -11 219 -11 735 l0 735 775 0 775 0
0 -735z m-1524 -843 c-17 -16 -18 -16 -5 5 7 12 15 20 18 17 3 -2 -3 -12 -13
-22z m669 13 c0 -4 -8 -9 -18 -11 -10 -1 -14 2 -10 9 4 7 0 8 -11 4 -10 -4
-15 -3 -11 3 7 11 50 7 50 -5z m172 -4 c0 -11 -5 -18 -9 -15 -4 3 -5 11 -1 19
7 21 12 19 10 -4z"/>
<path d="M1946 2695 c-27 -13 -33 -66 -11 -89 24 -24 455 -24 479 0 21 20 20
68 0 85 -21 17 -435 20 -468 4z"/>
<path d="M1750 2485 c-7 -8 -12 -26 -12 -40 0 -56 -11 -55 437 -55 448 0 438
-1 438 55 0 56 10 55 -438 55 -355 0 -414 -2 -425 -15z"/>
<path d="M1680 1911 c-114 -35 -172 -109 -122 -154 27 -24 60 -21 100 9 60 46
149 41 191 -10 31 -37 111 -4 111 45 0 70 -180 140 -280 110z m162 -21 c58
-22 108 -62 108 -87 0 -26 -31 -53 -60 -53 -15 0 -36 10 -50 25 -43 45 -134
45 -189 0 -50 -43 -101 -29 -101 27 0 21 9 34 40 54 85 57 164 67 252 34z"/>
<path d="M2524 1910 c-18 -6 -54 -25 -80 -42 -54 -37 -65 -65 -40 -104 22 -32
65 -32 106 2 55 47 147 41 189 -10 31 -37 111 -4 111 44 0 27 -36 62 -91 90
-49 25 -146 35 -195 20z m194 -29 c78 -40 101 -80 66 -115 -23 -23 -51 -20
-91 12 -30 22 -47 27 -93 27 -46 0 -63 -5 -93 -27 -59 -45 -107 -31 -107 31 0
23 55 64 117 87 52 20 148 12 201 -15z"/>
<path d="M1689 1641 c-16 -16 -29 -39 -29 -50 0 -20 6 -21 80 -21 74 0 80 1
80 21 0 27 -53 79 -80 79 -12 0 -35 -13 -51 -29z"/>
<path d="M2539 1641 c-16 -16 -29 -39 -29 -50 0 -20 6 -21 80 -21 74 0 80 1
80 21 0 27 -53 79 -80 79 -12 0 -35 -13 -51 -29z"/>
<path d="M3490 1980 c0 -33 3 -40 19 -40 38 0 51 11 51 46 0 32 -2 34 -35 34
-34 0 -35 -1 -35 -40z"/>
<path d="M676 1935 c-16 -12 -18 -18 -8 -40 11 -25 13 -25 37 -9 23 15 23 17
8 40 -8 13 -16 24 -17 24 0 0 -10 -7 -20 -15z"/>
<path d="M917 1883 c-12 -11 -8 -23 8 -23 8 0 15 7 15 15 0 16 -12 20 -23 8z"/>
<path d="M3295 1840 c-10 -17 12 -37 25 -24 8 8 6 15 -4 23 -10 9 -16 9 -21 1z"/>
<path d="M3725 1730 c-17 -19 -17 -21 0 -40 l18 -20 24 22 c21 20 22 23 6 40
-20 23 -26 23 -48 -2z"/>
<path d="M1050 1726 c-10 -13 -10 -19 0 -32 12 -14 15 -14 29 0 14 15 14 17 0
32 -14 14 -17 14 -29 0z"/>
<path d="M3270 1695 c0 -9 5 -15 11 -13 6 2 11 8 11 13 0 5 -5 11 -11 13 -6 2
-11 -4 -11 -13z"/>
<path d="M762 1547 l-22 -23 25 -24 25 -23 25 23 25 24 -22 23 c-12 13 -24 23
-28 23 -4 0 -16 -10 -28 -23z"/>
<path d="M485 1390 c-8 -13 15 -24 27 -12 6 6 4 11 -6 15 -8 3 -18 2 -21 -3z"/>
<path d="M3762 1367 c-36 -16 -40 -56 -9 -83 31 -27 64 -22 79 12 23 49 -21
93 -70 71z"/>
<path d="M445 1119 c-4 -6 -5 -12 -2 -15 2 -3 7 2 10 11 7 17 1 20 -8 4z"/>
<path d="M565 1119 c-4 -6 -5 -12 -2 -15 2 -3 7 2 10 11 7 17 1 20 -8 4z"/>
<path d="M680 1110 c-6 -11 -8 -20 -6 -20 3 0 10 9 16 20 6 11 8 20 6 20 -3 0
-10 -9 -16 -20z"/>
<path d="M3576 1105 c-3 -8 -1 -15 4 -15 6 0 10 7 10 15 0 8 -2 15 -4 15 -2 0
-6 -7 -10 -15z"/>
<path d="M822 668 c29 -132 179 -202 303 -140 61 30 93 71 113 145 l10 37
-218 0 -218 0 10 -42z"/>
<path d="M1600 606 l0 -105 -110 -66 c-106 -64 -110 -68 -110 -101 l0 -34 340
0 341 0 -3 205 -3 205 -227 0 -228 0 0 -104z"/>
<path d="M2292 505 l-2 -205 340 0 340 0 0 34 c0 33 -4 37 -110 101 l-110 66
0 105 0 104 -227 0 -228 0 -3 -205z"/>
<path d="M3129 678 c28 -122 139 -193 259 -167 80 17 143 82 163 167 l7 32
-218 0 -218 0 7 -32z"/>
</g>
</svg>
