<svg width="25" height="25" viewBox="0 0 1000 1000">
<path d="M774.4,735.2c-3.9,0-5.9,0-7.8-2l-115.6-56.8c-96-7.8-170.5-80.4-170.5-166.6c0-92.1,84.3-166.6,186.2-166.6c101.9,0,186.2,74.5,186.2,166.6c0,41.2-17.6,80.4-49,111.7l-9.8,96c0,5.9-3.9,11.8-9.8,15.7C780.3,735.2,778.3,735.2,774.4,735.2z M666.6,382.4c-80.4,0-147,56.8-147,127.4c0,66.6,60.8,123.5,137.2,127.4c2,0,5.9,0,7.8,2l94.1,47l7.8-74.5c0-3.9,2-9.8,5.9-11.8c25.5-23.5,41.2-54.9,41.2-88.2C813.6,439.2,747,382.4,666.6,382.4z"/><path d="M264.8,735.2c-3.9,0-7.8-2-11.8-3.9c-5.9-3.9-9.8-11.8-7.8-17.6l13.7-105.8c-47-43.1-72.5-98-72.5-156.8c0-123.5,113.7-225.4,254.8-225.4c66.6,0,127.4,21.6,176.4,62.7c7.8,7.8,9.8,19.6,2,27.4c-7.8,7.8-19.6,9.8-27.4,2c-41.2-33.3-94.1-52.9-150.9-52.9c-119.6,0-215.6,84.3-215.6,186.2c0,51,23.5,98,66.6,133.3c5.9,3.9,7.8,11.8,7.8,17.6l-9.8,78.4l94.1-47c3.9-2,7.8-2,11.8-2c33.3,5.9,64.7,5.9,98-2c9.8-2,21.6,3.9,23.5,15.7c2,11.8-3.9,21.6-15.7,23.5c-35.3,7.8-70.6,7.8-105.8,2l-121.5,60.8C270.7,735.2,268.7,735.2,264.8,735.2z"/><path d="M500,990C229.5,990,10,770.5,10,500C10,229.5,229.5,10,500,10c270.5,0,490,219.5,490,490C990,770.5,770.5,990,500,990z M500,49.2C251.1,49.2,49.2,251.1,49.2,500c0,248.9,201.9,450.8,450.8,450.8c248.9,0,450.8-201.9,450.8-450.8C950.8,251.1,748.9,49.2,500,49.2z"/><path d="M296.2,376.5c0,13,10.5,23.5,23.5,23.5c13,0,23.5-10.5,23.5-23.5S332.7,353,319.7,353C306.7,353,296.2,363.5,296.2,376.5z"/><path d="M445.1,376.5c0,13,10.5,23.5,23.5,23.5c13,0,23.5-10.5,23.5-23.5S481.6,353,468.6,353C455.6,353,445.1,363.5,445.1,376.5z"/><path d="M594.1,500c0,13,10.5,23.5,23.5,23.5c13,0,23.5-10.5,23.5-23.5c0-13-10.5-23.5-23.5-23.5C604.6,476.5,594.1,487,594.1,500L594.1,500z"/><path d="M707.8,500c0,13,10.5,23.5,23.5,23.5c13,0,23.5-10.5,23.5-23.5c0-13-10.5-23.5-23.5-23.5C718.3,476.5,707.8,487,707.8,500L707.8,500z"/>
</svg>
