<svg width="25" height="25" viewBox="0 0 1000 1000">
<path d="M819.5,407.9c-11.8,0-19.6-7.8-19.6-19.6c0-96-74.5-174.4-166.6-174.4c-11.8,0-19.6-7.8-19.6-19.6c0-11.8,7.8-19.6,19.6-19.6c113.7,0,205.8,96,205.8,213.6C839.1,398.1,831.2,407.9,819.5,407.9z"/><path d="M735.2,407.9c-11.8,0-19.6-7.8-19.6-19.6c0-51-41.2-92.1-90.2-92.1c-11.8,0-19.6-7.8-19.6-19.6c0-11.8,7.8-19.6,19.6-19.6c72.5,0,129.4,58.8,129.4,131.3C754.8,400,745,407.9,735.2,407.9z"/><path d="M407.9,698c-68.6,0-123.5-45.1-123.5-100c0-54.9,54.9-100,123.5-100c68.6,0,123.5,45.1,123.5,100C531.4,652.9,474.5,698,407.9,698z M407.9,535.3c-47,0-84.3,27.4-84.3,60.8s37.2,60.8,84.3,60.8c47,0,84.3-27.4,84.3-60.8S453,535.3,407.9,535.3z"/><path d="M421.6,794c-29.4,0-60.8-3.9-88.2-11.8c-29.4-7.8-54.9-19.6-78.4-35.3c-47-33.3-74.5-76.4-84.3-125.4c-7.8-49,0-96,23.5-141.1c21.6-43.1,49-82.3,82.3-117.6c33.3-35.3,68.6-62.7,107.8-80.4c43.1-19.6,76.4-21.6,101.9-7.8c0,0,2,0,2,2c15.7,11.8,25.5,29.4,27.4,51c2,13.7,2,23.5,0,33.3c2-2,5.9-2,7.8-3.9c7.8-3.9,17.6-7.8,31.4-13.7s27.4-7.8,39.2-9.8c3.9,0,5.9,0,7.8,0c25.5,0,45.1,7.8,58.8,23.5c13.7,17.6,19.6,35.3,17.6,56.8c-2,15.7-3.9,31.4-7.8,45.1l0,0c39.2,9.8,66.6,33.3,78.4,68.6c11.8,37.2,5.9,74.5-17.6,115.6c-13.7,23.5-31.4,45.1-54.9,64.7c-23.5,19.6-49,35.3-76.4,49c-27.4,11.8-56.8,21.6-86.2,27.4C480.4,790.1,451,794,421.6,794z M447.1,304c-13.7,0-29.4,3.9-47,11.8c-33.3,15.7-64.7,39.2-94.1,70.6c-29.4,33.3-56.8,70.6-76.4,109.8c-19.6,37.2-25.5,76.4-19.6,117.6c5.9,39.2,29.4,72.5,66.6,100c19.6,13.7,41.2,23.5,66.6,29.4c51,13.7,105.8,13.7,160.7,2c27.4-5.9,54.9-13.7,78.4-25.5c23.5-11.8,47-25.5,66.6-43.1c19.6-17.6,35.3-35.3,47-54.9c17.6-29.4,23.5-56.8,13.7-82.3c-7.8-23.5-25.5-37.2-54.9-43.1c-2,0-5.9,0-7.8-2c-7.8-2-11.8-7.8-15.7-13.7c-3.9-3.9-9.8-17.6,0-35.3c2-9.8,3.9-23.5,5.9-37.2c2-9.8-2-19.6-9.8-27.4c-5.9-7.8-17.6-11.8-33.3-9.8c-7.8,0-17.6,3.9-29.4,7.8c-11.8,3.9-21.6,7.8-27.4,11.8c-7.8,3.9-15.7,7.8-23.5,9.8c-15.7,5.9-25.5,7.8-35.3,2c-5.9-5.9-17.6-17.6-7.8-43.1c2-5.9,3.9-13.7,2-31.4c-2-13.7-5.9-17.6-9.8-21.6C460.8,306,454.9,304,447.1,304z"/><path d="M500,990C229.5,990,10,770.5,10,500C10,229.5,229.5,10,500,10c270.5,0,490,219.5,490,490C990,770.5,770.5,990,500,990z M500,49.2C251.1,49.2,49.2,251.1,49.2,500c0,248.9,201.9,450.8,450.8,450.8c248.9,0,450.8-201.9,450.8-450.8C950.8,251.1,748.9,49.2,500,49.2z"/>
</svg>
